<svg width="64" height="64" viewBox="0 0 64 64" fill="none" xmlns="http://www.w3.org/2000/svg">
<path fill-rule="evenodd" clip-rule="evenodd" d="M13.3663 55.0818C18.3122 58.3865 24.1269 60.1504 30.0752 60.1504V30.0752L60.1504 30.0752C60.1504 24.1269 58.3865 18.3122 55.0818 13.3663C51.7771 8.42048 47.08 4.56567 41.5845 2.28935C36.0889 0.0130314 30.0418 -0.582558 24.2078 0.577899C18.3738 1.73836 13.0149 4.60274 8.80883 8.80883C4.60274 13.0149 1.73836 18.3738 0.5779 24.2078C-0.582558 30.0418 0.0130308 36.0889 2.28935 41.5845C4.56567 47.08 8.42048 51.7771 13.3663 55.0818ZM36.2142 52.4907C34.7027 56.1396 33.9248 60.0505 33.9248 64L64 64L64 33.9248C60.0505 33.9248 56.1396 34.7027 52.4907 36.2141C48.8418 37.7256 45.5264 39.9409 42.7336 42.7336C39.9409 45.5264 37.7256 48.8418 36.2142 52.4907Z" fill="#1A202C"/>
</svg>
