<svg width="64" height="53" viewBox="0 0 64 53" fill="none" xmlns="http://www.w3.org/2000/svg">
<path fill-rule="evenodd" clip-rule="evenodd" d="M35.1894 4.8632C32.6 4.35988 29.9283 4.47653 27.3926 5.20362C24.857 5.9307 22.5294 7.24758 20.6002 9.04657C18.671 10.8456 17.195 13.0756 16.2928 15.5544L12.0115 13.9961C13.1596 10.8417 15.0379 8.00381 17.493 5.71445C19.948 3.4251 22.91 1.74928 26.1368 0.824014C29.3636 -0.101253 32.7635 -0.249699 36.0587 0.390815C39.3539 1.03133 42.4506 2.44261 45.0959 4.50929L42.2908 8.09954C40.2122 6.47553 37.7787 5.36653 35.1894 4.8632Z" fill="#121319"/>
<path fill-rule="evenodd" clip-rule="evenodd" d="M28.8042 47.4415C31.3935 47.9448 34.0653 47.8282 36.6009 47.1011C39.1366 46.374 41.4641 45.0571 43.3933 43.2581C45.3225 41.4592 46.7985 39.2291 47.7007 36.7504L51.9821 38.3086C50.834 41.463 48.9556 44.3009 46.5006 46.5903C44.0455 48.8796 41.0835 50.5554 37.8567 51.4807C34.63 52.406 31.23 52.5544 27.9348 51.9139C24.6397 51.2734 21.5429 49.8621 18.8977 47.7954L21.7027 44.2052C23.7813 45.8292 26.2148 46.9382 28.8042 47.4415Z" fill="#121319"/>
<path fill-rule="evenodd" clip-rule="evenodd" d="M9.20812 24.613C7.49295 24.613 5.50578 25.4602 3.22165 27.7444L0 24.5227C2.78073 21.742 5.85842 20.0569 9.20812 20.0569C12.5578 20.0569 15.6355 21.742 18.4162 24.5227C20.7004 26.8069 22.6875 27.6541 24.4027 27.6541C26.1179 27.6541 28.105 26.8069 30.3892 24.5227C33.1699 21.742 36.2476 20.0569 39.5973 20.0569C42.947 20.0569 46.0247 21.742 48.8054 24.5227C51.0895 26.8069 53.0767 27.6541 54.7919 27.6541C56.507 27.6541 58.4942 26.8069 60.7784 24.5227L64 27.7444C61.2193 30.5251 58.1416 32.2102 54.7919 32.2102C51.4422 32.2102 48.3645 30.5251 45.5838 27.7444C43.2996 25.4602 41.3125 24.613 39.5973 24.613C37.8821 24.613 35.895 25.4602 33.6108 27.7444C30.8301 30.5251 27.7524 32.2102 24.4027 32.2102C21.053 32.2102 17.9753 30.5251 15.1946 27.7444C12.9105 25.4602 10.9233 24.613 9.20812 24.613Z" fill="#121319"/>
</svg>
