<svg width="96" height="79" viewBox="0 0 96 79" fill="none" xmlns="http://www.w3.org/2000/svg">
<path fill-rule="evenodd" clip-rule="evenodd" d="M50.6073 4.23991C54.0338 7.2898 56.2008 11.8385 56.3586 17.6416C56.5232 23.6911 54.015 28.7676 50.22 32.9695C46.4734 37.1178 41.3726 40.5371 35.9904 43.4506C33.5182 44.7889 30.9428 46.0432 28.3538 47.2274C28.593 50.5971 28.9894 53.6995 29.6227 56.4895C30.745 61.4337 32.5422 65.0817 35.2167 67.5082C37.8316 69.8806 41.68 71.4413 47.6663 71.4413C54.0448 71.4413 58.657 69.0256 61.7132 65.5455C64.8239 62.0032 66.4759 57.1739 66.4759 52.2118C66.4759 50.3623 67.9752 48.863 69.8247 48.863C71.6742 48.863 73.1735 50.3623 73.1735 52.2118C73.1735 57.7448 74.0107 62.4396 76.5758 65.7432C79.0021 68.8681 83.5433 71.4413 92.6512 71.4413C94.5007 71.4413 96 72.9406 96 74.7901C96 76.6396 94.5007 78.1389 92.6512 78.1389C82.273 78.1389 75.401 75.151 71.2856 69.8507C70.4803 68.8137 69.804 67.7162 69.2374 66.5761C68.5091 67.7673 67.6789 68.9024 66.7457 69.965C62.3786 74.9378 55.9116 78.1389 47.6663 78.1389C40.4578 78.1389 34.8555 76.2239 30.7164 72.4686C26.6369 68.7674 24.3768 63.6357 23.0912 57.9721C22.5264 55.4836 22.1363 52.8316 21.8697 50.0648C20.9829 50.4394 20.1036 50.8069 19.2356 51.1678C18.426 51.5045 17.6283 51.8347 16.8443 52.1592C12.2708 54.0523 8.16124 55.7534 4.86238 57.4239C3.21237 58.2594 1.19744 57.5992 0.361919 55.9491C-0.473604 54.2991 0.186671 52.2842 1.83668 51.4487C5.38477 49.652 9.77554 47.8353 14.3267 45.9523C15.1022 45.6314 15.8824 45.3086 16.6639 44.9836C18.2448 44.3262 19.8401 43.6565 21.4323 42.9698C21.3893 41.669 21.3623 40.3534 21.3468 39.0275C21.3024 35.2088 21.3558 31.1219 21.4098 26.994C21.4502 23.898 21.491 20.779 21.491 17.7327C21.491 6.40354 30.1567 0.230525 38.6339 0.0064578C42.8666 -0.105422 47.2299 1.23365 50.6073 4.23991ZM28.0584 39.971C28.0528 39.6324 28.048 39.2919 28.044 38.9495C27.9996 35.1339 28.0514 31.2601 28.105 27.257C28.1463 24.1699 28.1886 21.006 28.1886 17.7327C28.1886 10.6279 33.3378 6.84641 38.8108 6.70174C41.5531 6.62926 44.1989 7.50225 46.1543 9.24277C48.0607 10.9397 49.5505 13.6725 49.6635 17.8238C49.7697 21.7288 48.2099 25.2025 45.2495 28.4804C42.2406 31.8118 37.8986 34.8017 32.802 37.5606C31.264 38.3931 29.6762 39.1948 28.0584 39.971Z" fill="black"/>
<path fill-rule="evenodd" clip-rule="evenodd" d="M72.6473 26.3175C74.4789 26.5746 75.7547 28.2678 75.497 30.0992L75.1905 32.2782C74.9328 34.1096 73.2391 35.3859 71.4076 35.1288C69.576 34.8717 68.3002 33.1785 68.5579 31.3471L68.8644 29.1681C69.1221 27.3367 70.8158 26.0604 72.6473 26.3175Z" fill="black"/>
</svg>
